<?xml version="1.0" encoding="iso-8859-1"?>
<!-- Generator: Adobe Illustrator 19.0.0, SVG Export Plug-In . SVG Version: 6.00 Build 0)  -->
<svg version="1.1" id="Capa_1" xmlns="http://www.w3.org/2000/svg" xmlns:xlink="http://www.w3.org/1999/xlink" x="0px" y="0px"
	 viewBox="0 0 496.008 496.008" style="enable-background:new 0 0 496.008 496.008;" xml:space="preserve">
<g>
	<g>
		<g>
			<path d="M288.004,216c0-0.784-0.184-1.512-0.232-2.28l110.416-39.424l6.808-18.152c7.28,19.016,11.008,39.072,11.008,59.856
				c0,5.112-0.232,10.248-0.688,15.28l15.936,1.44c0.504-5.512,0.752-11.136,0.752-16.72c0-28.584-6.416-55.92-18.96-81.32
				l7.456-19.88c18.008,30.6,27.504,65.248,27.504,101.2c0,32.12-7.8,64.04-22.536,92.328l14.184,7.392
				c15.928-30.552,24.352-65.04,24.352-99.72c0-43.072-12.68-84.36-36.488-119.912L449.3,37.984l-33.44-33.44l-163.688,171.88
				c-1.392-0.152-2.744-0.424-4.168-0.424c-0.784,0-1.512,0.184-2.28,0.232L206.292,65.816l-18.152-6.808
				C207.164,51.728,227.22,48,248.004,48c15.6,0,31.032,2.136,45.872,6.336l4.36-15.392C281.98,34.336,265.084,32,248.004,32
				c-28.584,0-55.92,6.416-81.32,18.96l-19.88-7.456C177.404,25.496,212.052,16,248.004,16c21.024,0,41.72,3.24,61.52,9.632
				l4.92-15.216C293.052,3.504,270.7,0,248.004,0c-43.072,0-84.36,12.68-119.912,36.488L69.988,14.704l-33.44,33.44L208.42,211.832
				c-0.144,1.392-0.416,2.744-0.416,4.168c0,0.784,0.184,1.512,0.232,2.28L97.82,257.712l-6.808,18.152
				c-7.28-19.024-11.008-39.08-11.008-59.864c0-5.104,0.232-10.24,0.688-15.28l-15.936-1.44c-0.504,5.52-0.752,11.144-0.752,16.72
				c0,28.584,6.416,55.92,18.96,81.32l-7.432,19.816c-14.008-23.88-23.056-50.536-26.216-78.056l-15.888,1.832
				c3.896,33.928,16.048,66.64,35.048,95.048l-21.768,58.056l33.44,33.44L224.004,276.4v105.872
				c-7.392-1.056-14.704-2.576-21.872-4.608l-4.36,15.392c8.584,2.432,17.36,4.192,26.232,5.352v16.144
				c-23.856-2.888-47.112-10.032-68.328-21.088l-7.392,14.192c23.48,12.24,49.288,20,75.72,22.96v18.864
				c-9.296,3.312-16,12.112-16,22.528v24h16v-24c0-4.416,3.584-8,8-8h32c4.416,0,8,3.584,8,8v24h16v-24
				c0-10.416-6.712-19.216-16-22.528v-18.944c34.352-3.792,67.032-15.68,95.912-35.016l58.104,21.784l33.44-33.44L287.58,220.168
				C287.732,218.776,288.004,217.424,288.004,216z M416.148,27.456l14.56,14.56L385.82,161.712l-102.176,36.496
				c-3.344-6.664-8.424-12.256-14.736-16.152L416.148,27.456z M59.46,47.856l14.56-14.56l119.696,44.888l36.496,102.176
				c-6.664,3.344-12.256,8.424-16.152,14.736L59.46,47.856z M79.86,404.544l-14.56-14.56l44.888-119.696l102.176-36.496
				c3.344,6.664,8.424,12.256,14.736,16.152L79.86,404.544z M256.004,448h-16v-16.24c2.664,0.104,5.328,0.24,8,0.24
				c2.68,0,5.328-0.208,8-0.304V448z M256.004,415.696c-2.664,0.104-5.32,0.304-8,0.304c-2.672,0-5.336-0.136-8-0.24v-16.032
				c2.664,0.112,5.328,0.272,8,0.272c2.68,0,5.336-0.12,8-0.232V415.696z M256.004,383.768c-2.656,0.12-5.32,0.232-8,0.232
				c-2.672,0-5.336-0.152-8-0.272V259.6l3.832-4.024c1.392,0.152,2.744,0.424,4.168,0.424c0.784,0,1.512-0.184,2.28-0.232
				l5.72,16.008V383.768z M248.004,240c-13.232,0-24-10.768-24-24s10.768-24,24-24s24,10.768,24,24S261.236,240,248.004,240z
				 M272.004,414.432v-16.016c19.936-2.576,39.128-8.392,57.32-17.376l19.88,7.456C325.484,402.456,299.316,411.176,272.004,414.432
				z M272.004,382.248v-65.664l17.712,49.6l18.152,6.808C296.284,377.432,284.3,380.504,272.004,382.248z M436.548,384.144
				l-14.56,14.56l-119.696-44.888L265.796,251.64c6.664-3.344,12.256-8.424,16.152-14.736L436.548,384.144z"/>
			<rect x="240.004" y="208" width="16" height="16"/>
			<path d="M347.732,24.352c-5.336-2.784-10.888-5.384-16.512-7.744l-6.176,14.768c5.2,2.176,10.352,4.584,15.28,7.168
				L347.732,24.352z"/>
			<path d="M86.34,170.136l-15.392-4.376c-1.56,5.504-2.88,11.16-3.912,16.8l15.736,2.888
				C83.716,180.296,84.916,175.152,86.34,170.136z"/>
			<path d="M48.004,216c0-32.12,7.8-64.04,22.536-92.328l-14.192-7.392c-15.92,30.552-24.344,65.04-24.344,99.72
				c0,2.784,0.048,5.544,0.152,8.304l15.984-0.608C48.052,221.144,48.004,218.576,48.004,216z"/>
			<path d="M409.668,261.864l15.392,4.376c1.56-5.496,2.872-11.152,3.912-16.808l-15.736-2.888
				C412.292,251.712,411.092,256.864,409.668,261.864z"/>
		</g>
	</g>
</g>
<g>
</g>
<g>
</g>
<g>
</g>
<g>
</g>
<g>
</g>
<g>
</g>
<g>
</g>
<g>
</g>
<g>
</g>
<g>
</g>
<g>
</g>
<g>
</g>
<g>
</g>
<g>
</g>
<g>
</g>
</svg>
