<svg id="Layer_1" enable-background="new 0 0 512 512" height="512" viewBox="0 0 512 512" width="512" xmlns="http://www.w3.org/2000/svg"><path d="m497 482h-67.538v-93.797c21.712-5.261 41.342-21.962 56.353-48.334 16.886-29.664 26.185-68.683 26.185-109.869s-9.299-80.205-26.186-109.869c-18.401-32.327-43.742-50.131-71.353-50.131-20.638 0-39.994 9.943-56.14 28.454-4.638-13.667-10.288-26.45-16.892-38.052-22.171-38.951-52.511-60.402-85.429-60.402s-63.257 21.451-85.429 60.402c-6.583 11.565-12.219 24.303-16.849 37.921-16.108-18.431-35.401-28.323-56.036-28.323-27.611 0-52.951 17.804-71.353 50.131-16.886 29.664-26.186 68.683-26.186 109.869s9.3 80.205 26.186 109.869c15.011 26.371 34.641 43.073 56.353 48.333v93.798h-67.686c-8.284 0-15 6.716-15 15s6.716 15 15 15h482c8.284 0 15-6.716 15-15s-6.716-15-15-15zm-226-93.515c26.122-5.317 49.951-24.529 68.444-55.486 6.281 12.394 13.682 23.186 21.959 31.884 11.486 12.069 24.436 19.94 38.058 23.28v93.837h-128.461zm98.051-253.285c12.671-22.37 29.222-35.2 45.41-35.2 16.125 0 32.63 12.747 45.281 34.972 14.354 25.214 22.258 58.963 22.258 95.028s-7.904 69.814-22.257 95.028c-8.724 15.326-19.281 26.142-30.281 31.382v-80.41c0-8.284-6.716-15-15-15s-15 6.716-15 15v80.397c-17.177-8.211-32.994-29.968-42.646-59.989-.029-.091-.069-.174-.1-.264 10.906-30.167 16.746-64.96 16.746-101.144 0-20.098-1.807-39.763-5.277-58.449.308-.431.599-.88.866-1.351zm-172.408-59.957c16.607-29.176 37.687-45.243 59.357-45.243s42.75 16.067 59.357 45.243c18.123 31.838 28.104 74.369 28.104 119.757s-9.981 87.919-28.104 119.757c-12.738 22.378-28.108 37.033-44.357 42.653v-87.705l44.852-44.852c5.858-5.858 5.858-15.355 0-21.213-5.857-5.858-15.355-5.858-21.213 0l-23.639 23.639v-75.279c0-8.284-6.716-15-15-15s-15 6.716-15 15v16.85l-8.394-8.394c-5.857-5.858-15.355-5.858-21.213 0s-5.858 15.355 0 21.213l29.607 29.607v146.134c-16.249-5.619-31.619-20.275-44.357-42.652-18.123-31.839-28.104-74.369-28.104-119.758s9.981-87.919 28.104-119.757zm-144.239 249.785c-14.353-25.215-22.257-58.963-22.257-95.028s7.904-69.813 22.257-95.028c12.652-22.225 29.156-34.972 45.282-34.972 16.545 0 33.36 13.305 46.139 36.506-3.476 18.699-5.286 38.38-5.286 58.494 0 36.344 5.891 71.285 16.89 101.545-.262.551-.504 1.116-.702 1.709-9.842 29.506-25.179 50.343-42.042 58.239v-80.493c0-8.284-6.716-15-15-15s-15 6.716-15 15v80.41c-11-5.24-21.557-16.056-30.281-31.382zm60.281 63.13c13.36-3.277 26.084-10.912 37.4-22.59 8.505-8.777 16.118-19.759 22.554-32.428 18.482 30.876 42.278 50.036 68.361 55.345v93.515h-128.315z"/></svg>