<svg id="Layer_1" enable-background="new 0 0 512 512" height="512" viewBox="0 0 512 512" width="512" xmlns="http://www.w3.org/2000/svg"><g><path d="m396.81 360.493c-5.521-3.963-13.02-3.72-18.271.599-63.524 52.21-157.645 48.57-216.925-10.707-59.198-59.196-62.999-153.301-10.707-216.923 4.316-5.251 4.561-12.749.598-18.271-3.964-5.523-11.144-7.689-17.501-5.28-27.55 10.439-52.153 26.367-73.124 47.339-81.096 81.089-81.254 212.626-.001 293.874 81.084 81.086 212.626 81.249 293.873 0 20.97-20.971 36.896-45.574 47.338-73.129 2.41-6.356.243-13.538-5.28-17.502zm-63.27 69.418c-68.988 68.99-181.578 69.872-251.446-.001-68.774-68.768-70.081-181.372 0-251.446 5.115-5.115 10.482-9.88 16.086-14.284-15.177 37.61-33.867 131.333 42.222 207.418 75.994 75.992 169.632 57.471 207.427 42.219-4.405 5.607-9.172 10.977-14.289 16.094z"/><path d="m170.939 222.034c3.257 1.086 20.445 5.241 35.095 19.665 14.425 14.65 18.58 31.838 19.665 35.095 2.037 6.132 7.773 10.271 14.235 10.271s12.198-4.139 14.235-10.271c1.086-3.257 5.241-20.445 19.665-35.095 14.65-14.425 31.838-18.579 35.095-19.665 6.132-2.037 10.271-7.773 10.271-14.235s-4.139-12.198-10.271-14.235c-3.257-1.086-20.445-5.241-35.095-19.665-14.425-14.65-18.58-31.838-19.665-35.095-2.037-6.132-7.773-10.271-14.235-10.271s-12.198 4.139-14.235 10.271c-1.086 3.257-5.241 20.445-19.665 35.095-14.65 14.425-31.838 18.579-35.095 19.665-6.132 2.037-10.271 7.773-10.271 14.235s4.139 12.198 10.271 14.235zm68.995-42.488c7.466 11.164 17.09 20.788 28.252 28.253-11.166 7.467-20.786 17.088-28.253 28.254-7.465-11.164-17.088-20.787-28.251-28.253 11.166-7.467 20.786-17.088 28.252-28.254z"/><path d="m299.473 93.501c3.257 1.086 20.445 5.241 35.095 19.665 14.425 14.65 18.579 31.838 19.665 35.095 2.037 6.132 7.773 10.271 14.235 10.271s12.198-4.139 14.235-10.271c1.086-3.257 5.241-20.445 19.665-35.095 14.65-14.425 31.838-18.579 35.095-19.665 6.132-2.037 10.271-7.773 10.271-14.235s-4.139-12.198-10.271-14.235c-3.257-1.086-20.445-5.241-35.095-19.665-14.425-14.65-18.58-31.838-19.665-35.095-2.037-6.132-7.773-10.271-14.234-10.271s-12.198 4.139-14.235 10.271c-1.086 3.257-5.24 20.445-19.665 35.095-14.65 14.425-31.838 18.579-35.095 19.665-6.132 2.037-10.271 7.773-10.271 14.235s4.138 12.198 10.27 14.235zm68.996-42.489c7.466 11.164 17.09 20.788 28.252 28.253-11.166 7.467-20.786 17.088-28.253 28.254-7.465-11.164-17.088-20.787-28.251-28.253 11.165-7.466 20.785-17.088 28.252-28.254z"/><path d="m501.729 241.765c-3.257-1.086-20.445-5.241-35.095-19.665-14.425-14.65-18.58-31.838-19.665-35.095-2.037-6.132-7.773-10.271-14.235-10.271s-12.198 4.139-14.235 10.271c-1.086 3.257-5.24 20.445-19.665 35.095-14.65 14.425-31.838 18.579-35.095 19.665-6.132 2.037-10.271 7.773-10.271 14.235s4.139 12.198 10.271 14.235c3.257 1.086 20.445 5.241 35.095 19.665 14.425 14.65 18.579 31.838 19.665 35.095 2.037 6.132 7.773 10.271 14.235 10.271s12.198-4.139 14.235-10.271c1.086-3.257 5.241-20.445 19.665-35.095 14.65-14.425 31.838-18.579 35.095-19.665 6.132-2.037 10.271-7.773 10.271-14.235s-4.139-12.198-10.271-14.235zm-68.996 42.488c-7.465-11.164-17.088-20.787-28.251-28.253 11.166-7.467 20.786-17.088 28.252-28.254 7.466 11.164 17.09 20.788 28.252 28.253-11.166 7.467-20.786 17.088-28.253 28.254z"/></g></svg>